<?xml version="1.0" encoding="utf-8"?>
<!-- Generator: Adobe Illustrator 28.0.0, SVG Export Plug-In . SVG Version: 6.00 Build 0)  -->
<svg version="1.1" id="Layer_1" xmlns="http://www.w3.org/2000/svg" xmlns:xlink="http://www.w3.org/1999/xlink" x="0px" y="0px"
	 viewBox="0 0 1299.8 964.1" style="enable-background:new 0 0 1299.8 964.1;" xml:space="preserve">
<style type="text/css">
	.st0{fill:#7CB342;}
	.st1{fill:#629626;}
	.st2{fill:#325B20;}
</style>
<g>
	<g>
		<g>
			<path class="st0" d="M704.9,326.7c0,70.8-21.7,135-56.9,181.8c-35.2-46.8-56.9-111-56.9-181.8s21.7-135,56.9-181.8
				C683.2,191.6,704.9,255.8,704.9,326.7z"/>
		</g>
		<g>
			<path class="st0" d="M801.4,483.5c-46.6,33.5-99.2,50.5-146.6,51c14.2-43.7,46.2-87.3,92.8-120.8s99.2-50.5,146.6-51
				C880,406.4,848,450,801.4,483.5z"/>
		</g>
		<g>
			<path class="st0" d="M491.3,483.5c46.6,33.5,99.2,50.5,146.6,51c-14.2-43.7-46.2-87.3-92.8-120.8s-99.2-50.5-146.6-51
				C412.6,406.4,444.7,450,491.3,483.5z"/>
		</g>
		<g>
			<path class="st0" d="M599.4,629c35.3-28,58.7-63.5,68-98.2c-37.2,2.2-77.8,17.5-113,45.5c-35.3,28-58.7,63.5-68.1,98.2
				C523.6,672.3,564.1,657,599.4,629z"/>
		</g>
		<g>
			<path class="st0" d="M698,629c-35.3-28-58.7-63.5-68-98.2c37.2,2.2,77.8,17.5,113,45.5c35.3,28,58.7,63.5,68,98.2
				C773.9,672.3,733.3,657,698,629z"/>
		</g>
		<g>
			<path class="st0" d="M772.1,582.3c-34.7-4.2-64.8-18-85.6-36.8c25-13.2,57.7-19.3,92.4-15s64.8,18,85.6,36.8
				C839.5,580.5,806.7,586.5,772.1,582.3z"/>
		</g>
		<g>
			<path class="st0" d="M510.4,334.4c15.9,26.3,38.4,45.6,62,55.5c2.5-24.7-3.8-53.1-19.8-79.4c-15.9-26.3-38.4-45.6-62-55.5
				C488.1,279.8,494.4,308.1,510.4,334.4z"/>
		</g>
		<g>
			<path class="st0" d="M789.4,334.4c-15.9,26.3-38.4,45.6-62,55.5c-2.5-24.7,3.8-53.1,19.8-79.4c15.9-26.3,38.4-45.6,62-55.5
				C811.7,279.8,805.3,308.1,789.4,334.4z"/>
		</g>
		<g>
			<path class="st0" d="M549.2,582.3c34.7-4.2,64.8-18,85.6-36.8c-25-13.2-57.7-19.3-92.4-15c-34.7,4.2-64.8,18-85.6,36.8
				C481.8,580.5,514.6,586.5,549.2,582.3z"/>
		</g>
		<g>
			<path class="st1" d="M832.8,566.6c-20.8-18.8-50.9-32.6-85.6-36.8c-3.6-0.5-7.2-0.7-10.8-0.9c9.7-5.4,19.3-11.4,28.6-18.1
				c46.6-33.5,78.7-77.1,92.8-120.8c-47.4,0.5-100,17.6-146.6,51c-6.3,4.5-12.4,9.3-18.2,14.2c4.5-20.7,7-42.6,7-65.2
				c0-64.8-19.9-123.5-52-166.2c-32.2,42.8-52,101.5-52,166.2c0,23.6,2.7,46.4,7.6,67.9c-4.8-3.9-9.7-7.8-14.8-11.4
				c-46.6-33.5-99.2-50.5-146.6-51c14.2,43.7,46.2,87.3,92.8,120.8c8.3,6,16.8,11.4,25.5,16.3c-29.1,5.8-54.4,18.3-72.5,34.7
				c17.3,9.2,38.5,14.8,61.3,16c-15,19.4-25.5,40.2-31,60.9c37.2-2.2,77.8-17.5,113-45.5c5.8-4.6,11.2-9.4,16.4-14.4
				c5.1,5,10.6,9.8,16.4,14.4c35.3,28,75.8,43.3,113,45.5c-5.7-21.1-16.5-42.3-32-62.1C778,585.2,808.9,579.2,832.8,566.6z"/>
			<path class="st1" d="M595.4,420.5c2.5-24.7-3.8-53.1-19.8-79.4c-15.9-26.3-38.4-45.6-62-55.5c-2.5,24.7,3.8,53.1,19.8,79.4
				C549.3,391.2,571.8,410.5,595.4,420.5z"/>
			<path class="st1" d="M767.2,369.4c15.9-26.3,22.3-54.6,19.8-79.4c-23.6,10-46.1,29.3-62,55.5c-15.9,26.3-22.3,54.6-19.8,79.4
				C728.8,415,751.3,395.7,767.2,369.4z"/>
		</g>
		<path class="st2" d="M979,317.2l7.7-27l-28,1.2c-41.6,1.8-84.2,12.9-124.7,32c20.5-40,29.2-83.2,24.4-123.1l-3.2-27.1l-25,11
			c-35.5,15.7-67.4,42.7-91.8,77.1c-4.3-80.8-30.3-156.4-74.4-215L648,25l-16.1,21.4c-43,57.1-68.8,130.5-74.1,209.1
			c-23.7-31.6-54.1-56.5-87.5-71.2l-25-11l-3.2,27.1c-5,42,4.9,87.7,27.8,129.4c-42.8-21.5-88.2-34-132.6-35.9l-28-1.2l7.7,27
			c17.8,62.2,60.1,121.4,119,166.7c13.4,10.3,27.4,19.6,41.7,27.9c-34.5,6.9-65.8,21.5-89.5,42.3l-21.6,19l25.2,13.8
			c23.1,12.7,50.3,20.1,79.1,21.9c-30.7,29.5-52.8,64.7-63.4,101.4l-7.7,27l28-1.2c48.4-2.1,98.5-21.3,141.1-54.1
			c36.3-28,63.9-63.3,79.4-101.1c15.6,37.2,42.9,71.8,78.7,99.4c42.6,32.8,92.7,52,141.1,54.1l28,1.2l-7.7-27
			c-10.3-35.9-31.7-70.4-61.4-99.5c3.2,0.1,6.5,0.3,9.7,0.3c33.8,0,66-7.7,92.8-22.4l25.2-13.8l-21.6-19
			c-28.2-24.8-67-40.9-109.4-45.4c-1.2-0.1-2.4-0.2-3.7-0.3c13.7-8.1,27.1-17,40-26.9C918.9,438.6,961.2,379.4,979,317.2z
			 M818.6,237c-2.5,26.1-11.4,53.1-26.2,78.3l0,0c-15,25.6-34.7,47.3-57,63c2.5-26.1,11.4-53.1,26.2-78.3
			C776.6,274.3,796.3,252.7,818.6,237z M648,94.5c33,53.9,50.9,120.7,50.9,191.1S681,422.7,648,476.7
			c-33-53.9-50.9-120.7-50.9-191.1S615,148.4,648,94.5z M539,300c14.8,25.3,23.7,52.2,26.2,78.3c-22.4-15.7-42-37.3-57.1-63
			c-14.8-25.3-23.7-52.2-26.2-78.3C504.3,252.7,524,274.3,539,300z M366.3,337.4c48.6,8,97.5,29.9,140.6,63
			c42.7,32.8,75.4,73.5,94.3,116.9c-48.6-8-97.6-29.9-140.7-63C417.9,421.4,385.2,380.7,366.3,337.4z M501.9,551.2
			c19.8-2.1,39.2-1.1,57.1,3c-6.7,2.7-13.4,5.7-20,9c-11,3.4-22.6,5.9-34.6,7.2c-20.5,2.2-40.7,1-59.1-3.4
			C462.3,558.8,481.5,553.4,501.9,551.2z M544.3,652.3c-26.5,20.4-56.1,34.5-85.9,41.3c13.4-25.9,34.1-50.2,60.2-70.2l0,0
			c11.5-8.8,23.6-16.4,36-22.8c10.6-3.5,20.7-7.9,30.2-12.9c6.5-2.2,13.1-4.2,19.7-5.7C591.1,608,570.4,632.2,544.3,652.3z
			 M837.5,691.9c-29.8-6.8-59.4-21-85.9-41.3l0,0c-26.1-20-46.7-44.3-60.2-70.2c29.8,6.8,59.4,21,85.9,41.3
			C803.4,641.7,824.1,666,837.5,691.9z M875.9,566.9c-18.4,4.4-38.5,5.6-59.1,3.4l0,0c-20.4-2.2-39.7-7.6-56.5-15.7
			c18.4-4.4,38.5-5.6,59.1-3.4C839.8,553.4,859,558.8,875.9,566.9z M694.7,514.9c18.9-43.3,51.6-84,94.3-116.9
			c43.1-33.2,92.1-55,140.7-63c-18.9,43.3-51.6,84-94.3,116.9C792.3,485,743.3,506.8,694.7,514.9z"/>
	</g>
</g>
<image style="overflow:visible;enable-background:new    ;" width="5414" height="1005" xlink:href="3816CAAAC71818E8.png"  transform="matrix(0.2401 0 0 0.2401 -1.354311e-02 747.6931)">
</image>
</svg>
