<?xml version="1.0" encoding="utf-8"?>
<!-- Generator: Adobe Illustrator 28.0.0, SVG Export Plug-In . SVG Version: 6.00 Build 0)  -->
<svg version="1.1" id="Layer_1" xmlns="http://www.w3.org/2000/svg" xmlns:xlink="http://www.w3.org/1999/xlink" x="0px" y="0px"
	 viewBox="0 0 1356.83 992.23" style="enable-background:new 0 0 1356.83 992.23;" xml:space="preserve">
<style type="text/css">
	.st0{fill:#7CB342;}
	.st1{fill:#629626;}
	.st2{fill:#325B20;}
	.st3{fill:none;}
	.st4{fill:#263238;}
	.st5{font-family:'Montserrat-ExtraBold';}
	.st6{font-size:204.88px;}
	.st7{letter-spacing:20;}
</style>
<g>
	<g>
		<g>
			<path class="st0" d="M738.19,365.66c0,70.83-21.72,135.03-56.91,181.79c-35.19-46.76-56.91-110.96-56.91-181.79
				s21.72-135.03,56.91-181.79C716.47,230.62,738.19,294.83,738.19,365.66z"/>
		</g>
		<g>
			<path class="st0" d="M834.68,522.48c-46.64,33.48-99.18,50.51-146.6,51.05c14.16-43.66,46.17-87.31,92.8-120.79
				c46.64-33.48,99.18-50.51,146.6-51.05C913.33,445.35,881.32,489,834.68,522.48z"/>
		</g>
		<g>
			<path class="st0" d="M524.59,522.48c46.64,33.48,99.18,50.51,146.6,51.05c-14.16-43.66-46.17-87.31-92.8-120.79
				c-46.64-33.48-99.18-50.51-146.6-51.05C445.94,445.35,477.95,489,524.59,522.48z"/>
		</g>
		<g>
			<path class="st0" d="M632.72,668.01c35.28-28,58.67-63.45,68.05-98.25c-37.2,2.18-77.77,17.49-113.05,45.5
				c-35.28,28-58.67,63.45-68.05,98.25C556.88,711.33,597.44,696.02,632.72,668.01z"/>
		</g>
		<g>
			<path class="st0" d="M731.33,668.01c-35.28-28-58.67-63.45-68.05-98.25c37.2,2.18,77.77,17.49,113.05,45.5
				c35.28,28,58.67,63.45,68.05,98.25C807.17,711.33,766.61,696.02,731.33,668.01z"/>
		</g>
		<g>
			<path class="st0" d="M805.37,621.28c-34.68-4.25-64.81-17.99-85.59-36.82c25-13.23,57.74-19.27,92.41-15.02
				s64.81,17.99,85.59,36.82C872.77,619.48,840.04,625.52,805.37,621.28z"/>
		</g>
		<g>
			<path class="st0" d="M543.66,373.43c15.93,26.28,38.42,45.56,61.99,55.55c2.54-24.71-3.83-53.08-19.76-79.36
				c-15.93-26.28-38.42-45.56-61.99-55.55C521.36,318.78,527.73,347.15,543.66,373.43z"/>
		</g>
		<g>
			<path class="st0" d="M822.69,373.43c-15.93,26.28-38.42,45.56-61.99,55.55c-2.54-24.71,3.83-53.08,19.76-79.36
				c15.93-26.28,38.42-45.56,61.99-55.55C844.99,318.78,838.62,347.15,822.69,373.43z"/>
		</g>
		<g>
			<path class="st0" d="M582.53,621.28c34.68-4.25,64.81-17.99,85.59-36.82c-25-13.23-57.74-19.27-92.41-15.02
				c-34.68,4.25-64.81,17.99-85.59,36.82C515.12,619.48,547.86,625.52,582.53,621.28z"/>
		</g>
		<g>
			<path class="st1" d="M866.08,605.62c-20.78-18.83-50.91-32.58-85.59-36.82c-3.64-0.45-7.25-0.72-10.85-0.94
				c9.72-5.38,19.29-11.39,28.62-18.09c46.64-33.48,78.65-77.13,92.8-120.79c-47.42,0.54-99.96,17.58-146.6,51.05
				c-6.34,4.55-12.38,9.3-18.16,14.19c4.53-20.74,7.01-42.61,7.01-65.25c0-64.76-19.86-123.46-52.04-166.22
				c-32.18,42.76-52.04,101.46-52.04,166.22c0,23.61,2.67,46.4,7.58,67.92c-4.78-3.92-9.7-7.75-14.84-11.43
				c-46.64-33.48-99.18-50.51-146.6-51.05c14.16,43.66,46.17,87.31,92.8,120.79c8.33,5.98,16.85,11.41,25.5,16.34
				c-29.13,5.76-54.35,18.3-72.47,34.72c17.34,9.18,38.45,14.79,61.31,16.01c-14.96,19.4-25.48,40.24-31.04,60.87
				c37.2-2.18,77.77-17.49,113.05-45.5c5.79-4.6,11.23-9.41,16.37-14.37c5.14,4.96,10.58,9.78,16.37,14.37
				c35.28,28,75.85,43.32,113.05,45.5c-5.67-21.06-16.51-42.34-31.98-62.08C811.27,624.22,842.21,618.25,866.08,605.62z"/>
			<path class="st1" d="M628.7,459.47c2.54-24.71-3.83-53.08-19.76-79.36c-15.93-26.28-38.42-45.56-61.99-55.55
				c-2.54,24.71,3.83,53.08,19.76,79.36C582.64,430.2,605.13,449.48,628.7,459.47z"/>
			<path class="st1" d="M800.53,408.41c15.93-26.28,22.3-54.65,19.76-79.36c-23.57,9.99-46.07,29.27-61.99,55.55
				c-15.93,26.28-22.3,54.65-19.76,79.36C762.11,453.97,784.6,434.69,800.53,408.41z"/>
		</g>
		<path class="st2" d="M1012.27,356.17l7.72-26.95l-28.01,1.22c-41.62,1.82-84.21,12.88-124.66,31.97
			c20.5-39.98,29.17-83.19,24.43-123.07l-3.23-27.1l-24.97,11.02c-35.46,15.66-67.44,42.68-91.75,77.14
			c-4.34-80.81-30.32-156.41-74.39-214.96L681.28,64l-16.13,21.43c-43,57.13-68.8,130.48-74.06,209.08
			c-23.73-31.65-54.07-56.49-87.49-71.25l-24.97-11.03l-3.22,27.11c-5,41.99,4.87,87.68,27.77,129.39
			c-42.79-21.47-88.23-33.95-132.59-35.89l-28.01-1.22l7.72,26.95c17.82,62.2,60.07,121.4,118.96,166.7
			c13.42,10.33,27.4,19.62,41.74,27.94c-34.53,6.87-65.8,21.49-89.46,42.29l-21.63,19.01l25.25,13.85
			c23.08,12.66,50.31,20.1,79.05,21.9c-30.72,29.53-52.84,64.73-63.35,101.41l-7.72,26.95l28.01-1.22
			c48.38-2.11,98.5-21.34,141.12-54.13c36.35-27.96,63.93-63.28,79.38-101.08c15.58,37.15,42.88,71.84,78.68,99.38
			c42.62,32.79,92.74,52.01,141.12,54.12l28.01,1.22l-7.72-26.95c-10.29-35.9-31.73-70.37-61.44-99.51
			c3.24,0.14,6.48,0.26,9.69,0.26c33.77,0,66.04-7.69,92.78-22.36L988,614.51l-21.63-19.01c-28.16-24.75-67.01-40.89-109.4-45.44
			c-1.22-0.13-2.44-0.15-3.66-0.27c13.73-8.06,27.12-17.01,39.99-26.91C952.2,477.57,994.45,418.37,1012.27,356.17z M851.94,276.04
			c-2.48,26.11-11.41,53.07-26.19,78.33v0c-15,25.65-34.69,47.26-57.04,62.96c2.48-26.11,11.41-53.07,26.19-78.33
			C809.89,313.34,829.59,291.73,851.94,276.04z M681.28,133.47c32.96,53.93,50.87,120.69,50.87,191.08
			c0,70.4-17.91,137.15-50.87,191.08c-32.96-53.94-50.87-120.69-50.87-191.08C630.41,254.16,648.32,187.41,681.28,133.47z
			 M572.26,339c14.78,25.26,23.7,52.22,26.19,78.33c-22.36-15.69-42.05-37.3-57.05-62.96c-14.77-25.26-23.7-52.22-26.19-78.33
			C537.57,291.73,557.26,313.34,572.26,339z M399.57,376.41c48.56,8.05,97.55,29.86,140.65,63.02
			c42.69,32.84,75.38,73.54,94.3,116.86c-48.57-8.05-97.55-29.86-140.65-63.02C451.18,460.44,418.49,419.73,399.57,376.41z
			 M535.24,590.2c19.81-2.13,39.24-1.06,57.13,2.96c-6.73,2.69-13.39,5.68-19.96,8.96c-10.98,3.42-22.6,5.86-34.64,7.15
			c-20.53,2.21-40.66,1-59.07-3.38C495.57,597.79,514.82,592.39,535.24,590.2z M577.64,691.27c-26.47,20.36-56.12,34.54-85.88,41.35
			c13.44-25.94,34.09-50.19,60.16-70.24l0,0c11.48-8.83,23.57-16.41,35.99-22.82c10.58-3.5,20.65-7.86,30.15-12.87
			c6.55-2.22,13.14-4.15,19.74-5.66C624.35,646.98,603.7,671.22,577.64,691.27z M870.81,730.92c-29.76-6.81-59.41-20.98-85.88-41.34
			v0c-26.06-20.05-46.71-44.3-60.16-70.24c29.76,6.81,59.41,20.98,85.88,41.35C836.71,680.73,857.36,704.98,870.81,730.92z
			 M909.2,605.9c-18.41,4.38-38.54,5.59-59.07,3.38h0c-20.42-2.19-39.67-7.59-56.55-15.7c18.41-4.38,38.54-5.59,59.07-3.38
			C873.08,592.39,892.33,597.79,909.2,605.9z M728.04,553.9c18.92-43.32,51.61-84.02,94.3-116.86
			c43.1-33.16,92.09-54.98,140.65-63.02c-18.92,43.32-51.61,84.02-94.3,116.86C825.59,524.03,776.61,545.85,728.04,553.9z"/>
	</g>
</g>
<rect x="0" y="802.27" class="st3" width="1356.83" height="253.96"/>
<text transform="matrix(1 0 0 1 47.3627 929.2988)" class="st4 st5 st6 st7">GENÉRICO</text>
</svg>
